<svg version="1.1" id="Layer_1" xmlns="http://www.w3.org/2000/svg" xmlns:xlink="http://www.w3.org/1999/xlink" x="0px" y="0px"
	 width="100%" height="100%" viewBox="0 0 600 600" xml:space="preserve">
<path fill="#004880" opacity="1.000000" stroke="none" 
	d="
M507.225433,515.285522 
	C490.980499,528.503723 473.205444,538.077759 452.990387,542.355835 
	C443.832642,544.293823 434.384949,545.777893 425.057312,545.843506 
	C376.571198,546.184753 328.080597,546.166748 279.593201,545.932983 
	C255.444061,545.816528 233.092224,538.957886 212.604080,526.100708 
	C183.899796,508.087463 164.890503,482.662140 155.734024,450.182159 
	C153.031128,440.594421 151.289703,430.402557 151.197739,420.468170 
	C150.744217,371.483978 150.463440,322.485352 151.196869,273.507935 
	C151.621094,245.180344 161.073441,219.509872 179.137741,197.250534 
	C195.822174,176.691544 216.415451,161.840439 241.672089,153.708328 
	C256.081329,149.068848 270.958527,147.028305 286.062897,146.999161 
	C330.885437,146.912659 375.709290,146.795868 420.530609,147.045029 
	C441.937805,147.164017 462.657684,151.421722 481.719391,161.427780 
	C511.315979,176.963898 533.192444,199.705475 545.291626,231.358292 
	C551.157959,246.705276 553.866455,262.566956 553.923218,278.857483 
	C554.085144,325.345825 554.442505,371.840942 553.833313,418.321716 
	C553.461853,446.664520 544.595337,472.603333 526.523987,494.817505 
	C520.697449,501.979797 513.845886,508.308197 507.225433,515.285522 
M341.471375,449.909058 
	C342.820831,452.914001 343.877625,456.095703 345.568176,458.894623 
	C355.182404,474.811951 368.025574,487.174194 385.292816,494.666718 
	C400.705048,501.354309 416.702667,504.002319 433.212921,500.697296 
	C454.486389,496.438782 472.515900,486.350128 485.724518,468.711731 
	C499.426178,450.415070 505.223083,429.556122 501.634094,407.196625 
	C496.822662,377.221283 480.100952,355.268433 451.950500,343.105652 
	C429.276764,333.309174 406.380371,333.904114 383.827179,344.078522 
	C364.390320,352.847076 350.811127,367.397491 342.120422,386.696716 
	C337.235626,397.544342 334.776093,409.172485 335.338837,420.811890 
	C335.799774,430.345581 339.105560,439.741730 341.471375,449.909058 
M299.972931,273.420380 
	C302.430542,265.183441 302.703583,256.896393 301.059784,248.436523 
	C295.734833,221.031433 270.429443,204.625320 243.177429,208.270660 
	C214.029831,212.169586 194.336288,240.962387 199.959839,268.840302 
	C204.782654,292.748657 224.450134,308.554993 248.059875,309.948517 
	C270.017273,311.244446 293.021729,297.817932 299.972931,273.420380 
z"/>
<path fill="#004880" opacity="1.000000" stroke="none" 
	d="
M98.370789,140.754669 
	C88.497482,142.704483 79.349030,141.771271 70.417328,138.045273 
	C59.189289,133.361343 44.647072,117.767693 45.810703,103.163498 
	C46.519680,94.265457 45.652126,85.350060 51.178699,77.466942 
	C59.544369,65.534126 69.993622,57.530674 85.285736,56.926182 
	C102.561462,56.243279 115.658821,62.919617 125.008316,77.461082 
	C134.589188,92.362419 132.291702,114.774185 120.056480,127.577782 
	C114.025787,133.888641 107.072403,138.238495 98.370789,140.754669 
z"/>
</svg>